<?xml version="1.0" encoding="UTF-8" standalone="no"?>
<!DOCTYPE svg PUBLIC "-//W3C//DTD SVG 1.1//EN" "http://www.w3.org/Graphics/SVG/1.1/DTD/svg11.dtd">
<svg width="100%" height="100%" viewBox="0 0 591 591" version="1.1" xmlns="http://www.w3.org/2000/svg" xmlns:xlink="http://www.w3.org/1999/xlink" xml:space="preserve" xmlns:serif="http://www.serif.com/" style="fill-rule:evenodd;clip-rule:evenodd;stroke-linejoin:round;stroke-miterlimit:1.5;">
    <g transform="matrix(1,0,0,1,-885.827,-177.165)">
        <g transform="matrix(1,0,0,1,708.661,0)">
            <g transform="matrix(0.962774,0,0,0.985649,-2.51548,-33.6306)">
                <rect x="186.628" y="213.865" width="613.385" height="599.149" style="fill:none;"/>
            </g>
        </g>
        <g transform="matrix(1,0,0,1,708.661,0)">
            <g id="Uhr">
                <g id="Gehäuse">
                    <g transform="matrix(1.27625,0,0,1.27625,-150.331,-160.821)">
                        <path d="M537.88,625.747C522.388,631.726 505.558,635.004 487.968,635.004C411.353,635.004 349.152,572.803 349.152,496.188C349.152,419.573 411.353,357.371 487.968,357.371C564.583,357.371 626.785,419.573 626.785,496.188C626.785,513.777 623.506,530.607 617.528,546.099" style="fill:none;stroke:black;stroke-width:39.18px;"/>
                    </g>
                    <g transform="matrix(1.27625,0,0,1.27625,-150.331,-160.821)">
                        <path d="M537.88,625.747C522.388,631.726 505.558,635.004 487.968,635.004C411.353,635.004 349.152,572.803 349.152,496.188C349.152,419.573 411.353,357.371 487.968,357.371C564.583,357.371 626.785,419.573 626.785,496.188C626.785,513.777 623.506,530.607 617.528,546.099" style="fill:none;stroke:white;stroke-width:32.65px;"/>
                    </g>
                </g>
                <g id="Zeiger">
                    <path id="Zeiger--verbunden-" serif:id="Zeiger (verbunden)" d="M365.054,472.441L472.441,472.441L472.441,389.764" style="fill:none;stroke:black;stroke-width:50px;stroke-linecap:round;"/>
                    <path id="Zeiger--verbunden-1" serif:id="Zeiger (verbunden)" d="M365.054,472.441L472.441,472.441L472.441,389.764" style="fill:none;stroke:white;stroke-width:41.67px;stroke-linecap:round;"/>
                </g>
            </g>
        </g>
        <g transform="matrix(1,0,0,1,708.661,0)">
            <g transform="matrix(0.840814,0,0,0.840814,-111.822,-173.066)">
                <g id="Zahnrad">
                    <path d="M860.173,769.927C843.754,766.98 826.942,766.98 810.524,769.927L805.057,800.646C796.577,803.035 788.409,806.418 780.724,810.725L755.137,792.869C741.443,802.394 729.555,814.282 720.03,827.976L737.886,853.563C733.578,861.249 730.195,869.416 727.806,877.897L697.088,883.363C694.14,899.782 694.14,916.594 697.088,933.012L727.806,938.479C730.195,946.959 733.578,955.127 737.886,962.812L720.03,988.399C729.555,1002.09 741.443,1013.98 755.137,1023.51L780.724,1005.65C788.409,1009.96 796.577,1013.34 805.057,1015.73L810.524,1046.45C826.942,1049.4 843.754,1049.4 860.173,1046.45L865.639,1015.73C874.119,1013.34 882.287,1009.96 889.973,1005.65L915.559,1023.51C929.253,1013.98 941.141,1002.09 950.666,988.399L932.811,962.812C937.118,955.127 940.501,946.959 942.89,938.479L973.608,933.012C976.556,916.594 976.556,899.782 973.608,883.363L942.89,877.897C940.501,869.416 937.118,861.249 932.811,853.563L950.666,827.976C941.141,814.282 929.253,802.394 915.559,792.869L889.973,810.725C882.287,806.418 874.119,803.035 865.639,800.646L860.173,769.927ZM835.348,843.476C871.064,843.476 900.06,872.472 900.06,908.188C900.06,943.903 871.064,972.9 835.348,972.9C799.633,972.9 770.636,943.903 770.636,908.188C770.636,872.472 799.633,843.476 835.348,843.476Z" style="fill:white;stroke:black;stroke-width:4.96px;stroke-linecap:round;"/>
                </g>
            </g>
        </g>
    </g>
</svg>
